<svg width="1280" height="640" viewBox="0 0 1280 640" fill="none" xmlns="http://www.w3.org/2000/svg">
  <defs>
    <linearGradient id="bg" x1="80" y1="40" x2="1180" y2="600" gradientUnits="userSpaceOnUse">
      <stop stop-color="#FFF4ED"/>
      <stop offset="0.55" stop-color="#F7F7F5"/>
      <stop offset="1" stop-color="#ECFDF3"/>
    </linearGradient>
    <linearGradient id="accent" x1="206" y1="126" x2="436" y2="348" gradientUnits="userSpaceOnUse">
      <stop stop-color="#DC2626"/>
      <stop offset="1" stop-color="#7F1D1D"/>
    </linearGradient>
    <linearGradient id="card" x1="760" y1="156" x2="1142" y2="488" gradientUnits="userSpaceOnUse">
      <stop stop-color="white"/>
      <stop offset="1" stop-color="#F8FAFC"/>
    </linearGradient>
    <filter id="shadow" x="660" y="96" width="506" height="426" filterUnits="userSpaceOnUse" color-interpolation-filters="sRGB">
      <feFlood flood-opacity="0" result="BackgroundImageFix"/>
      <feColorMatrix in="SourceAlpha" type="matrix" values="0 0 0 0 0 0 0 0 0 0 0 0 0 0 0 0 0 0 127 0" result="hardAlpha"/>
      <feOffset dy="16"/>
      <feGaussianBlur stdDeviation="24"/>
      <feColorMatrix type="matrix" values="0 0 0 0 0.0588235 0 0 0 0 0.0941176 0 0 0 0 0.156863 0 0 0 0.12 0"/>
      <feBlend mode="normal" in2="BackgroundImageFix" result="effect1_dropShadow_1_2"/>
      <feBlend mode="normal" in="SourceGraphic" in2="effect1_dropShadow_1_2" result="shape"/>
    </filter>
  </defs>

  <rect width="1280" height="640" rx="36" fill="url(#bg)"/>
  <circle cx="142" cy="122" r="94" fill="#FEE2E2"/>
  <circle cx="1180" cy="512" r="120" fill="#DCFCE7"/>
  <circle cx="1096" cy="120" r="44" fill="#FFE4E6"/>

  <rect x="122" y="126" width="318" height="318" rx="42" fill="url(#accent)"/>
  <path d="M281 200C245.1 200 216 229.1 216 265V279C216 314.9 245.1 344 281 344C316.9 344 346 314.9 346 279V265C346 229.1 316.9 200 281 200ZM311 282H293V300C293 306.6 287.6 312 281 312C274.4 312 269 306.6 269 300V282H251C244.4 282 239 276.6 239 270C239 263.4 244.4 258 251 258H269V240C269 233.4 274.4 228 281 228C287.6 228 293 233.4 293 240V258H311C317.6 258 323 263.4 323 270C323 276.6 317.6 282 311 282Z" fill="white"/>
  <rect x="192" y="364" width="178" height="18" rx="9" fill="#FCA5A5"/>
  <rect x="220" y="396" width="122" height="14" rx="7" fill="#FEE2E2"/>

  <text x="500" y="188" fill="#B42318" font-family="Segoe UI, Arial, sans-serif" font-size="22" font-weight="700">Flutter • Supabase • Firebase Hosting</text>
  <text x="500" y="264" fill="#111827" font-family="Segoe UI, Arial, sans-serif" font-size="72" font-weight="800">Golden Hour</text>
  <text x="500" y="320" fill="#374151" font-family="Segoe UI, Arial, sans-serif" font-size="28" font-weight="500">Emergency response platform for highway accidents</text>
  <text x="500" y="368" fill="#4B5563" font-family="Segoe UI, Arial, sans-serif" font-size="26" font-weight="400">Role-based driver, first-aider, and dispatcher workflows</text>

  <rect x="500" y="416" width="210" height="54" rx="27" fill="#111827"/>
  <text x="556" y="451" fill="white" font-family="Segoe UI, Arial, sans-serif" font-size="22" font-weight="700">Live Demo</text>

  <rect x="726" y="416" width="236" height="54" rx="27" fill="white" stroke="#D1D5DB" stroke-width="2"/>
  <text x="783" y="451" fill="#111827" font-family="Segoe UI, Arial, sans-serif" font-size="22" font-weight="700">GitHub Repository</text>

  <g filter="url(#shadow)">
    <rect x="708" y="144" width="410" height="330" rx="28" fill="url(#card)"/>
    <rect x="736" y="176" width="174" height="28" rx="14" fill="#FEE2E2"/>
    <text x="754" y="196" fill="#B42318" font-family="Segoe UI, Arial, sans-serif" font-size="16" font-weight="700">Dispatcher Command Center</text>

    <rect x="736" y="224" width="354" height="86" rx="20" fill="#FFF7ED"/>
    <circle cx="776" cy="267" r="20" fill="#FDBA74"/>
    <rect x="812" y="244" width="168" height="14" rx="7" fill="#111827"/>
    <rect x="812" y="270" width="226" height="12" rx="6" fill="#9CA3AF"/>
    <rect x="996" y="243" width="70" height="26" rx="13" fill="#DC2626"/>
    <text x="1017" y="261" fill="white" font-family="Segoe UI, Arial, sans-serif" font-size="12" font-weight="700">High</text>

    <rect x="736" y="328" width="166" height="118" rx="20" fill="#F9FAFB"/>
    <text x="758" y="360" fill="#111827" font-family="Segoe UI, Arial, sans-serif" font-size="16" font-weight="700">Alerts</text>
    <text x="758" y="415" fill="#B42318" font-family="Segoe UI, Arial, sans-serif" font-size="40" font-weight="800">24</text>

    <rect x="924" y="328" width="166" height="118" rx="20" fill="#F9FAFB"/>
    <text x="946" y="360" fill="#111827" font-family="Segoe UI, Arial, sans-serif" font-size="16" font-weight="700">Responders</text>
    <text x="946" y="415" fill="#0B6E4F" font-family="Segoe UI, Arial, sans-serif" font-size="40" font-weight="800">8</text>
  </g>
</svg>
